Coordinates
version=1
nRows=60
nColumns=12
inDegrees=yes

Units are S.I. units (second, meters, Newtons, ...)
Angles are in degrees

endheader
time	SC_y	SC_z	SC_x	AC_y	AC_z	AC_x	GH_y	GH_z	GH_yy	EL_x	PS_y
       0.0              -15.25          38.91          59.45          55.94          0.151         -8.165         -19.47          15.95          -12.4          94.23          13.74
   0.01175              -15.26          38.91          59.45          55.94         0.1515         -8.164         -19.45          15.95         -12.43          94.23          13.75
   0.02351              -15.27           38.9          59.45          55.94         0.1521         -8.163         -19.44          15.96         -12.45          94.23          13.76
   0.03526              -15.27           38.9          59.45          55.94         0.1527         -8.161         -19.42          15.97         -12.48          94.24          13.77
   0.04701              -15.28          38.89          59.45          55.93         0.1534          -8.16          -19.4          15.98         -12.51          94.24          13.78
   0.05877              -15.29          38.88          59.45          55.93          0.154         -8.158         -19.38          15.99         -12.54          94.25          13.79
   0.07052              -15.29          38.87          59.45          55.93         0.1548         -8.156         -19.36          15.99         -12.57          94.25          13.81
   0.08227               -15.3          38.86          59.44          55.92         0.1556         -8.155         -19.33           16.0          -12.6          94.26          13.82
   0.09402              -15.31          38.86          59.44          55.92         0.1564         -8.153         -19.31          16.01         -12.64          94.27          13.83
    0.1058              -15.32          38.85          59.44          55.92         0.1573         -8.151         -19.28          16.02         -12.68          94.27          13.85
    0.1175              -15.33          38.83          59.44          55.91         0.1583         -8.148         -19.25          16.04         -12.72          94.28          13.87
    0.1293              -15.34          38.82          59.44          55.91         0.1593         -8.146         -19.22          16.05         -12.76          94.29          13.88
     0.141              -15.35          38.81          59.44           55.9         0.1605         -8.143         -19.19          16.06         -12.81          94.29           13.9
    0.1528              -15.36           38.8          59.43           55.9         0.1617          -8.14         -19.15          16.08         -12.86           94.3          13.92
    0.1645              -15.38          38.78          59.43          55.89          0.163         -8.137         -19.11          16.09         -12.92          94.31          13.95
    0.1763              -15.39          38.77          59.43          55.89         0.1644         -8.134         -19.07          16.11         -12.98          94.32          13.97
     0.188              -15.41          38.75          59.43          55.88          0.166          -8.13         -19.03          16.13         -13.05          94.33           14.0
    0.1998              -15.42          38.73          59.42          55.87         0.1677         -8.127         -18.98          16.15         -13.12          94.34          14.02
    0.2116              -15.44          38.71          59.42          55.87         0.1695         -8.122         -18.92          16.17          -13.2          94.36          14.06
    0.2233              -15.46          38.69          59.42          55.86         0.1715         -8.118         -18.86           16.2         -13.29          94.37          14.09
    0.2351              -15.48          38.67          59.41          55.85         0.1737         -8.112          -18.8          16.22         -13.39          94.39          14.13
    0.2468              -15.51          38.64          59.41          55.84         0.1762         -8.107         -18.72          16.25         -13.49          94.41          14.17
    0.2586              -15.54          38.61           59.4          55.83         0.1789           -8.1         -18.64          16.28         -13.61          94.42          14.21
    0.2703              -15.57          38.58           59.4          55.82         0.1819         -8.093         -18.55          16.32         -13.74          94.45          14.27
    0.2821               -15.6          38.54          59.39           55.8         0.1852         -8.086         -18.46          16.36         -13.88          94.47          14.32
    0.2938              -15.64           38.5          59.38          55.79         0.1889         -8.077         -18.35           16.4         -14.04           94.5          14.38
    0.3056              -15.68          38.45          59.38          55.77         0.1931         -8.067         -18.22          16.45         -14.22          94.52          14.46
    0.3173              -15.73           38.4          59.37          55.75         0.1977         -8.057         -18.08          16.51         -14.42          94.56          14.53
    0.3291              -15.78          38.35          59.36          55.73          0.203         -8.044         -17.93          16.57         -14.65          94.59          14.62
    0.3408              -15.84          38.28          59.35          55.71          0.209          -8.03         -17.75          16.65         -14.91          94.64          14.73
    0.3526              -15.91          38.21          59.34          55.68         0.2159         -8.014         -17.55          16.73          -15.2          94.69          14.84
    0.3643              -15.99          38.12          59.32          55.65         0.2237         -7.996         -17.32          16.82         -15.54          94.74          14.97
    0.3761              -16.08          38.02           59.3          55.61         0.2328         -7.975         -17.05          16.93         -15.93          94.81          15.13
    0.3878              -16.18          37.91          59.29          55.57         0.2433         -7.951         -16.73          17.06         -16.38          94.88          15.31
    0.3996              -16.31          37.77          59.26          55.52         0.2557         -7.922         -16.37          17.21         -16.92          94.97          15.52
    0.4114              -16.45          37.61          59.24          55.46         0.2702         -7.888         -15.94          17.38         -17.54          95.07          15.76
    0.4231              -16.63          37.42          59.21          55.39         0.2875         -7.848         -15.43          17.59         -18.29          95.19          16.05
    0.4349              -16.84           37.2          59.17           55.3         0.3082           -7.8         -14.81          17.84         -19.18          95.34          16.41
    0.4466              -17.09          36.92          59.12           55.2         0.3332         -7.742         -14.07          18.14         -20.26          95.52          16.83
    0.4584               -17.4          36.59          59.07          55.08         0.3638         -7.671         -13.16          18.51         -21.58          95.73          17.35
    0.4701              -17.77          36.18           59.0          54.92         0.4016         -7.583         -12.05          18.96          -23.2           96.0          17.99
    0.4819              -18.25          35.66          58.91          54.73         0.4487         -7.473         -10.65          19.53         -25.23          96.33          18.79
    0.4936              -18.84          35.01          58.81          54.49          0.508         -7.335         -8.893          20.24         -27.79          96.75          19.79
    0.5054               -19.6          34.19          58.67          54.18         0.5834          -7.16         -6.658          21.15         -31.04          97.28          21.07
    0.5171              -20.57          33.13          58.49          53.79           0.68         -6.936         -3.798          22.31          -35.2          97.97          22.71
    0.5289              -21.82          31.78          58.27          53.29         0.8039         -6.648        -0.1282           23.8         -40.54          98.84          24.81
    0.5406              -23.41          30.05          57.98          52.65         0.9621          -6.28           4.56           25.7         -47.36          99.96          27.49
    0.5524              -25.41          27.88          57.62          51.84          1.161         -5.817          10.45          28.09         -55.93          101.4          30.86
    0.5641              -27.85          25.23          57.18          50.85          1.404         -5.254          17.64          31.01         -66.38          103.1          34.97
    0.5759              -30.68          22.15          56.67          49.71          1.685           -4.6          25.96          34.38         -78.49          105.1          39.73
    0.5877              -33.74          18.83          56.12          48.47          1.989         -3.893          34.98          38.04         -91.61          107.2          44.89
    0.5994               -36.8           15.5          55.57          47.23          2.293         -3.186           44.0           41.7         -104.7          109.4          50.04
    0.6112              -39.62          12.43          55.06          46.09          2.574         -2.532          52.32          45.08         -116.8          111.4          54.81
    0.6229              -42.06          9.782          54.62          45.11          2.817         -1.969          59.51          47.99         -127.3          113.1          58.91
    0.6347              -44.06          7.608          54.26           44.3          3.016         -1.506           65.4          50.39         -135.9          114.5          62.29
    0.6464              -45.65          5.879          53.97          43.65          3.174         -1.138          70.09          52.29         -142.7          115.6          64.97
    0.6582               -46.9          4.525          53.75          43.15          3.298        -0.8503          73.76          53.78         -148.0          116.5          67.07
    0.6699              -47.87           3.47          53.57          42.76          3.394        -0.6259          76.62          54.94         -152.2          117.2           68.7
    0.6817              -48.63          2.646          53.43          42.45           3.47        -0.4506          78.85          55.84         -155.4          117.7          69.98
    0.6934              -49.22          1.997          53.33          42.21          3.529        -0.3127          80.61          56.56         -158.0          118.1          70.99
